:FULLY-SPECIFIED
:DEGREES
208
root 11.0727 16.6208 -1.90579 601.248 -86.4812 -588.076
lowerback -0.690346 -0.144889 -2.96002
upperback 1.53173 -0.141125 -1.41412
thorax 1.96181 -0.113488 0.204401
lowerneck -19.3075 0.772643 -2.08759
upperneck 34.9312 -0.694591 4.14561
head 15.5649 -0.311899 1.90991
rclavicle 3.97569e-016 -1.39149e-015
rhumerus -30.9051 -1.5503 -85.9587
rradius 32.9778
rwrist 24.8248
rhand -19.6301 -9.77202
rfingers 7.12502
rthumb 6.69687 -39.6461
lclavicle 3.97569e-016 -1.39149e-015
lhumerus -29.7833 -9.44602 85.5672
lradius 33.9327
lwrist 6.01868
lhand -26.7883 4.77149
lfingers 7.12502
lthumb -0.215588 34.7511
rfemur -41.4575 -6.64918 17.4389
rtibia 71.775
rfoot -2.10985 7.23612
rtoes -13.9923
lfemur -26.1259 0.0530423 -27.5417
ltibia 32.7557
lfoot -14.6483 -0.215123
ltoes -3.45359
209
root 11.0927 16.6106 -1.91367 606.915 -86.5207 -593.618
lowerback -0.691432 -0.328539 -3.17612
upperback 1.47571 -0.384348 -1.33612
thorax 1.91335 -0.237344 0.39962
lowerneck -19.4001 0.762217 -2.13091
upperneck 34.8779 -0.691928 4.16571
head 15.5609 -0.310743 1.92667
rclavicle -3.97569e-016 -2.09718e-014
rhumerus -31.3854 -1.99651 -85.6327
rradius 32.3698
rwrist 24.6707
rhand -19.5833 -9.89486
rfingers 7.12502
rthumb 6.74206 -39.7675
lclavicle -3.97569e-016 -2.09718e-014
lhumerus -28.9934 -9.82724 85.4306
lradius 34.8779
lwrist 6.55255
lhand -27.2915 4.74748
lfingers 7.12502
lthumb -0.701658 34.7261
rfemur -42.989 -6.62383 17.5375
rtibia 70.6025
rfoot -2.76007 6.93874
rtoes -14.0327
lfemur -25.3308 -0.179521 -27.6872
ltibia 32.6097
lfoot -15.12 -0.268925
ltoes -5.16664
210
root 11.1031 16.5998 -1.91935 609.471 -86.5249 -596.276
lowerback -0.566948 -0.459207 -3.28418
upperback 1.48148 -0.563141 -1.24492
thorax 1.85693 -0.327983 0.550343
lowerneck -19.3672 0.778291 -2.17568
upperneck 34.7894 -0.635182 4.14331
head 15.5072 -0.294798 1.93313
rclavicle -1.27222e-014 -2.24627e-014
rhumerus -31.8674 -2.51159 -85.2419
rradius 31.7444
rwrist 24.5519
rhand -19.548 -10.0351
rfingers 7.12502
rthumb 6.77617 -39.9066
lclavicle -1.27222e-014 -2.24627e-014
lhumerus -28.3558 -10.0994 85.2786
lradius 35.9423
lwrist 7.07787
lhand -27.8077 4.65022
lfingers 7.12502
lthumb -1.20014 34.6266
rfemur -44.0769 -6.39894 17.6471
rtibia 69.1163
rfoot -3.42318 6.53788
rtoes -14.1184
lfemur -24.179 -0.238418 -27.7645
ltibia 32.3804
lfoot -15.6615 -0.499796
ltoes -5.21138
211
root 11.1116 16.5952 -1.92621 611.475 -86.5834 -598.304
lowerback -0.527655 -0.588064 -3.34301
upperback 1.48909 -0.736195 -1.14527
thorax 1.85074 -0.41557 0.681855
lowerneck -19.3402 0.784258 -2.22477
upperneck 34.6628 -0.61009 4.1786
head 15.4386 -0.283236 1.95836
rclavicle -7.95139e-016 9.74045e-015
rhumerus -32.2336 -3.18063 -84.8212
rradius 31.0082
rwrist 24.4393
rhand -19.5603 -9.99419
rfingers 7.12502
rthumb 6.76431 -39.8661
lclavicle -7.95139e-016 9.74045e-015
lhumerus -27.6118 -10.3962 85.0587
lradius 37.0517
lwrist 8.07433
lhand -28.1743 4.68826
lfingers 7.12502
lthumb -1.55429 34.6623
rfemur -45.098 -6.11009 17.8179
rtibia 67.2921
rfoot -4.03566 5.96178
rtoes -14.1949
lfemur -23.071 -0.446944 -27.7451
ltibia 32.067
lfoot -16.2229 -0.457421
ltoes -5.54911
212
root 11.1236 16.5908 -1.9356 614.351 -86.7596 -601.072
lowerback -0.555257 -0.722238 -3.30543
upperback 1.44176 -0.915532 -1.0051
thorax 1.82588 -0.503832 0.800606
lowerneck -19.3249 0.796536 -2.26011
upperneck 34.5694 -0.561063 4.1576
head 15.3874 -0.26809 1.9625
rclavicle 0 2.10712e-014
rhumerus -32.6645 -3.81873 -84.326
rradius 30.3743
rwrist 24.3998
rhand -19.4206 -10.0707
rfingers 7.12502
rthumb 6.89911 -39.9383
lclavicle 0 2.10712e-014
lhumerus -26.9259 -10.625 84.8467
lradius 38.1798
lwrist 8.89887
lhand -28.4378 4.63162
lfingers 7.12502
lthumb -1.80872 34.6037
rfemur -46.0864 -5.78515 18.0911
rtibia 65.1593
rfoot -4.67699 5.3794
rtoes -14.3214
lfemur -22.0534 -0.727789 -27.602
ltibia 31.6213
lfoot -16.6757 -0.430218
ltoes -5.70351
213
root 11.1342 16.5872 -1.94839 617.881 -86.8515 -604.448
lowerback -0.63496 -0.87179 -3.37289
upperback 1.3943 -1.11169 -0.892933
thorax 1.83317 -0.602448 0.94797
lowerneck -19.3247 0.801411 -2.32579
upperneck 34.498 -0.52733 4.17048
head 15.3514 -0.259203 1.98414
rclavicle 9.93923e-015 6.7711e-015
rhumerus -33.0023 -4.65835 -83.7511
rradius 29.6437
rwrist 24.8333
rhand -19.2903 -10.1777
rfingers 7.12502
rthumb 7.02493 -40.0412
lclavicle 9.93923e-015 6.7711e-015
lhumerus -26.2472 -10.8427 84.5678
lradius 39.1022
lwrist 8.91628
lhand -28.9089 4.27561
lfingers 7.12502
lthumb -2.26375 34.2433
rfemur -46.995 -5.48423 18.2842
rtibia 62.7184
rfoot -5.28849 4.62239
rtoes -15.109
lfemur -21.034 -0.756035 -27.5622
ltibia 31.0539
lfoot -17.0359 -0.527619
ltoes -6.29756
214
root 11.1437 16.5902 -1.96096 621.49 -86.9206 -607.927
lowerback -0.711991 -1.02919 -3.43898
upperback 1.38401 -1.31783 -0.781568
thorax 1.87881 -0.707111 1.09263
lowerneck -19.3656 0.858869 -2.3274
upperneck 34.4294 -0.412269 4.12123
head 15.3222 -0.215371 1.98372
rclavicle -9.93923e-015 -2.20527e-014
rhumerus -33.28 -5.18128 -83.2977
rradius 28.9461
rwrist 24.7222
rhand -19.3234 -10.229
rfingers 7.12502
rthumb 6.99295 -40.0935
lclavicle -9.93923e-015 -2.20527e-014
lhumerus -25.5002 -10.9564 84.2652
lradius 40.3979
lwrist 10.4504
lhand -28.904 4.40115
lfingers 7.12502
lthumb -2.25899 34.3689
rfemur -47.6988 -5.08383 18.3642
rtibia 59.9923
rfoot -5.62928 3.93375
rtoes -14.9292
lfemur -19.9035 -1.13396 -27.5152
ltibia 30.3811
lfoot -17.5384 -0.279761
ltoes -6.32706
215
root 11.1515 16.5935 -1.97516 626.244 -87.0201 -612.538
lowerback -0.790383 -1.17827 -3.45099
upperback 1.34944 -1.514 -0.681144
thorax 1.89925 -0.805272 1.19593
lowerneck -19.3811 0.859376 -2.43663
upperneck 34.3914 -0.403165 4.21618
head 15.307 -0.211587 2.04416
rclavicle 1.59028e-014 1.10325e-014
rhumerus -33.5581 -6.01396 -82.722
rradius 28.242
rwrist 25.0133
rhand -19.081 -10.4285
rfingers 7.12502
rthumb 7.22699 -40.2851
lclavicle 1.59028e-014 1.10325e-014
lhumerus -24.8567 -11.2241 83.9753
lradius 41.566
lwrist 11.5062
lhand -29.2728 4.18019
lfingers 7.12502
lthumb -2.61519 34.1439
rfemur -48.2073 -4.73573 18.4394
rtibia 56.9952
rfoot -5.92336 3.18289
rtoes -14.8291
lfemur -18.7529 -1.3402 -27.4331
ltibia 29.599
lfoot -17.7882 -0.176832
ltoes -6.81856
216
root 11.1634 16.595 -1.99128 631.206 -87.1057 -617.297
lowerback -0.861557 -1.35903 -3.47714
upperback 1.28967 -1.75319 -0.562067
thorax 1.89365 -0.924473 1.32519
lowerneck -19.3462 0.935809 -2.43443
upperneck 34.2996 -0.251163 4.13595
head 15.2472 -0.156843 2.03503
rclavicle -7.95139e-016 -1.10822e-014
rhumerus -33.8871 -6.50946 -82.2423
rradius 27.6472
rwrist 25.1239
rhand -19.0931 -10.5615
rfingers 7.12502
rthumb 7.21531 -40.4185
lclavicle -7.95139e-016 -1.10822e-014
lhumerus -24.2381 -11.288 83.6338
lradius 42.6502
lwrist 11.8849
lhand -29.3939 4.21287
lfingers 7.12502
lthumb -2.73212 34.1751
rfemur -48.6705 -4.33348 18.4777
rtibia 53.7584
rfoot -6.02374 2.39707
rtoes -14.567
lfemur -17.6322 -1.41801 -27.3508
ltibia 28.7255
lfoot -17.8996 -0.147206
ltoes -7.41904
217
root 11.1698 16.5955 -2.00574 637.796 -87.1551 -623.726
lowerback -0.95502 -1.50157 -3.40333
upperback 1.25983 -1.94115 -0.512603
thorax 1.92393 -1.01732 1.32715
lowerneck -19.3231 0.923946 -2.4738
upperneck 34.2297 -0.269795 4.19075
head 15.2095 -0.160642 2.05981
rclavicle -1.51076e-014 -3.45885e-014
rhumerus -34.1951 -7.43739 -81.6511
rradius 26.9641
rwrist 25.6758
rhand -19.0446 -10.6827
rfingers 7.12502
rthumb 7.26213 -40.538
lclavicle -1.51076e-014 -3.45885e-014
lhumerus -23.6407 -11.6324 83.2643
lradius 43.7388
lwrist 12.1837
lhand -29.5943 4.16767
lfingers 7.12502
lthumb -2.92564 34.1273
rfemur -48.9117 -4.04018 18.4765
rtibia 50.3096
rfoot -5.96404 1.53744
rtoes -15.7703
lfemur -16.433 -1.6368 -27.277
ltibia 27.7856
lfoot -17.9879 -0.0386668
ltoes -7.31281
218
root 11.1793 16.5946 -2.0228 641.535 -87.1226 -627.229
lowerback -1.05067 -1.66308 -3.51074
upperback 1.20997 -2.15215 -0.40674
thorax 1.94506 -1.12417 1.48718
lowerneck -19.3953 0.991884 -2.54256
upperneck 34.1887 -0.132716 4.18757
head 15.1995 -0.109949 2.09564
rclavicle -1.66979e-014 -2.78299e-014
rhumerus -34.4383 -7.9957 -81.0967
rradius 26.3205
rwrist 26.1189
rhand -19.0879 -10.7405
rfingers 7.12502
rthumb 7.22034 -40.5973
lclavicle -1.66979e-014 -2.78299e-014
lhumerus -23.0184 -11.4735 82.8812
lradius 44.7679
lwrist 12.3121
lhand -29.511 4.05374
lfingers 7.12502
lthumb -2.84525 34.0145
rfemur -49.128 -3.5857 18.3475
rtibia 46.6837
rfoot -5.71271 0.564169
rtoes -14.9422
lfemur -15.3093 -1.5592 -27.288
ltibia 26.7952
lfoot -17.9529 -0.0140222
ltoes -7.83163
219
root 11.1866 16.5925 -2.03921 645.932 -87.0103 -631.475
lowerback -1.03818 -1.79336 -3.62879
upperback 1.14705 -2.32592 -0.35143
thorax 1.88976 -1.21108 1.60595
lowerneck -19.3835 1.00756 -2.53968
upperneck 34.153 -0.0828152 4.12162
head 15.1773 -0.0971737 2.07536
rclavicle -3.10104e-014 -1.49089e-015
rhumerus -34.8422 -8.6622 -80.5139
rradius 25.82
rwrist 26.3539
rhand -19.0322 -10.7909
rfingers 7.12502
rthumb 7.27411 -40.6459
lclavicle -3.10104e-014 -1.49089e-015
lhumerus -22.5438 -11.6347 82.5497
lradius 45.8506
lwrist 12.5135
lhand -29.5739 4.08244
lfingers 7.12502
lthumb -2.90592 34.0424
rfemur -49.1039 -3.24091 18.1151
rtibia 42.9181
rfoot -5.64604 -0.315154
rtoes -14.5446
lfemur -14.0552 -1.51514 -27.3661
ltibia 25.738
lfoot -17.8623 0.101078
ltoes -8.65281
220
root 11.193 16.5927 -2.05668 652.124 -86.9324 -637.512
lowerback -1.05004 -1.96905 -3.64929
upperback 1.12627 -2.56047 -0.254138
thorax 1.89358 -1.3286 1.70961
lowerneck -19.4157 1.04901 -2.63182
upperneck 34.0586 0.0332324 4.10474
head 15.1337 -0.0588519 2.10401
rclavicle -7.95139e-016 2.88238e-015
rhumerus -35.0937 -9.20476 -79.9706
rradius 25.2936
rwrist 26.7873
rhand -19.0344 -11.0857
rfingers 7.12502
rthumb 7.27195 -40.9407
lclavicle -7.95139e-016 2.88238e-015
lhumerus -22.014 -11.7347 82.2349
lradius 46.8874
lwrist 12.9418
lhand -29.7767 3.92544
lfingers 7.12502
lthumb -3.10181 33.8826
rfemur -48.9851 -2.93269 17.9225
rtibia 39.0658
rfoot -5.58641 -1.2286
rtoes -15.0994
lfemur -12.8138 -1.49712 -27.3389
ltibia 24.6679
lfoot -17.6894 0.20673
ltoes -9.41554
221
root 11.1979 16.5897 -2.07502 656.98 -86.825 -642.23
lowerback -1.05018 -2.10284 -3.688
upperback 1.10237 -2.73924 -0.179628
thorax 1.885 -1.41822 1.80226
lowerneck -19.458 1.05019 -2.66268
upperneck 34.0037 0.0631551 4.08317
head 15.116 -0.0506605 2.10527
rclavicle -5.48646e-014 -3.33958e-014
rhumerus -35.4413 -9.75007 -79.4154
rradius 24.8401
rwrist 27.1885
rhand -19.1689 -11.0548
rfingers 7.12502
rthumb 7.14212 -40.9143
lclavicle -5.48646e-014 -3.33958e-014
lhumerus -21.5465 -11.8083 81.9348
lradius 47.8757
lwrist 12.986
lhand -29.8803 3.77564
lfingers 7.12502
lthumb -3.20185 33.7313
rfemur -48.7547 -2.47748 17.6138
rtibia 35.2044
rfoot -5.53038 -2.26406
rtoes -15.5702
lfemur -11.5103 -1.47822 -27.322
ltibia 23.5222
lfoot -17.4134 0.393888
ltoes -10.1215
